<svg width="20" height="20" viewBox="0 0 20 20" fill="none" xmlns="http://www.w3.org/2000/svg">
<path d="M0.500377 6.91975L9.50002 12.0208C9.65203 12.1069 9.82447 12.1522 10 12.1522C10.1755 12.1522 10.348 12.1069 10.5 12.0208L19.4996 6.91975C19.6508 6.83415 19.7764 6.71125 19.8641 6.56325C19.9518 6.41525 19.9985 6.24731 19.9996 6.07611C20.0003 5.90326 19.9544 5.73329 19.8666 5.58342C19.7788 5.43355 19.6522 5.3091 19.4996 5.22267L10.5 0.131425C10.348 0.0453271 10.1755 0 10 0C9.82447 0 9.65203 0.0453271 9.50002 0.131425L0.500377 5.22267C0.347779 5.3091 0.221169 5.43355 0.13337 5.58342C0.0455698 5.73329 -0.000302844 5.90326 0.000396695 6.07611C0.00145002 6.24731 0.0481537 6.41525 0.135866 6.56325C0.223578 6.71125 0.349245 6.83415 0.500377 6.91975V6.91975ZM10 2.15223L16.9997 6.07611L10 10L3.00028 6.07611L10 2.15223ZM18.4997 9.18579L10 13.9239L1.50034 9.14655C1.38621 9.08169 1.26013 9.03962 1.12935 9.02277C0.998579 9.00591 0.865699 9.0146 0.738364 9.04834C0.611029 9.08207 0.491755 9.14019 0.387412 9.21934C0.283069 9.29849 0.195719 9.39711 0.130392 9.50951C2.43326e-05 9.73476 -0.0342406 10.0014 0.0350735 10.2514C0.104388 10.5013 0.271654 10.7142 0.500377 10.8436L9.50002 15.9447C9.65203 16.0308 9.82447 16.0761 10 16.0761C10.1755 16.0761 10.348 16.0308 10.5 15.9447L19.4996 10.8436C19.7283 10.7142 19.8956 10.5013 19.9649 10.2514C20.0342 10.0014 20 9.73476 19.8696 9.50951C19.8043 9.39711 19.7169 9.29849 19.6126 9.21934C19.5082 9.14019 19.389 9.08207 19.2616 9.04834C19.1343 9.0146 19.0014 9.00591 18.8706 9.02277C18.7399 9.03962 18.6138 9.08169 18.4997 9.14655V9.18579ZM18.4997 13.1097L10 17.8478L1.50034 13.0704C1.38621 13.0056 1.26013 12.9635 1.12935 12.9467C0.998579 12.9298 0.865699 12.9385 0.738364 12.9722C0.611029 13.006 0.491755 13.0641 0.387412 13.1432C0.283069 13.2224 0.195719 13.321 0.130392 13.4334C2.43326e-05 13.6586 -0.0342406 13.9253 0.0350735 14.1753C0.104388 14.4252 0.271654 14.6381 0.500377 14.7675L9.50002 19.8686C9.65203 19.9547 9.82447 20 10 20C10.1755 20 10.348 19.9547 10.5 19.8686L19.4996 14.7675C19.7283 14.6381 19.8956 14.4252 19.9649 14.1753C20.0342 13.9253 20 13.6586 19.8696 13.4334C19.8043 13.321 19.7169 13.2224 19.6126 13.1432C19.5082 13.0641 19.389 13.006 19.2616 12.9722C19.1343 12.9385 19.0014 12.9298 18.8706 12.9467C18.7399 12.9635 18.6138 13.0056 18.4997 13.0704V13.1097Z" fill="black"/>
</svg>
