<svg width="31" height="31" viewBox="0 0 31 31" fill="none" xmlns="http://www.w3.org/2000/svg">
<path d="M20.6395 9.6447C20.5018 9.50582 20.3379 9.39558 20.1573 9.32035C19.9768 9.24512 19.7831 9.20639 19.5875 9.20639C19.3918 9.20639 19.1982 9.24512 19.0176 9.32035C18.837 9.39558 18.6731 9.50582 18.5354 9.6447L15.1421 13.0528L11.7488 9.6447C11.4698 9.36568 11.0913 9.20892 10.6967 9.20892C10.3021 9.20892 9.92367 9.36568 9.64464 9.6447C9.36562 9.92373 9.20886 10.3022 9.20886 10.6968C9.20886 11.0914 9.36562 11.4698 9.64464 11.7488L13.0528 15.1421L9.64464 18.5355C9.50576 18.6732 9.39552 18.8371 9.32029 19.0177C9.24506 19.1982 9.20633 19.3919 9.20633 19.5875C9.20633 19.7831 9.24506 19.9768 9.32029 20.1574C9.39552 20.338 9.50576 20.5018 9.64464 20.6396C9.78239 20.7785 9.94628 20.8887 10.1269 20.9639C10.3074 21.0392 10.5011 21.0779 10.6967 21.0779C10.8923 21.0779 11.086 21.0392 11.2666 20.9639C11.4471 20.8887 11.611 20.7785 11.7488 20.6396L15.1421 17.2315L18.5354 20.6396C18.6731 20.7785 18.837 20.8887 19.0176 20.9639C19.1982 21.0392 19.3918 21.0779 19.5875 21.0779C19.7831 21.0779 19.9768 21.0392 20.1573 20.9639C20.3379 20.8887 20.5018 20.7785 20.6395 20.6396C20.7784 20.5018 20.8887 20.338 20.9639 20.1574C21.0391 19.9768 21.0778 19.7831 21.0778 19.5875C21.0778 19.3919 21.0391 19.1982 20.9639 19.0177C20.8887 18.8371 20.7784 18.6732 20.6395 18.5355L17.2314 15.1421L20.6395 11.7488C20.7784 11.6111 20.8887 11.4472 20.9639 11.2666C21.0391 11.0861 21.0778 10.8924 21.0778 10.6968C21.0778 10.5012 21.0391 10.3075 20.9639 10.1269C20.8887 9.94634 20.7784 9.78245 20.6395 9.6447ZM25.6184 4.66588C24.2514 3.25062 22.6164 2.12176 20.8085 1.34517C19.0007 0.568578 17.0563 0.159808 15.0888 0.14271C13.1212 0.125613 11.17 0.500532 9.34897 1.24559C7.5279 1.99065 5.87345 3.09092 4.48216 4.48222C3.09086 5.87351 1.99059 7.52796 1.24553 9.34903C0.500471 11.1701 0.125552 13.1213 0.142649 15.0888C0.159746 17.0563 0.568517 19.0007 1.34511 20.8086C2.1217 22.6164 3.25056 24.2515 4.66582 25.6184C6.03273 27.0337 7.66781 28.1625 9.47565 28.9391C11.2835 29.7157 13.2279 30.1245 15.1954 30.1416C17.1629 30.1587 19.1141 29.7838 20.9352 29.0387C22.7563 28.2937 24.4107 27.1934 25.802 25.8021C27.1933 24.4108 28.2936 22.7563 29.0387 20.9353C29.7837 19.1142 30.1586 17.163 30.1415 15.1955C30.1244 13.228 29.7157 11.2836 28.9391 9.47571C28.1625 7.66787 27.0336 6.03279 25.6184 4.66588ZM23.529 23.5291C21.5909 25.4694 19.04 26.6776 16.3109 26.948C13.5818 27.2184 10.8434 26.5342 8.56223 25.012C6.28103 23.4898 4.59819 21.2237 3.80042 18.5999C3.00264 15.976 3.13929 13.1568 4.18708 10.6224C5.23487 8.08797 7.12897 5.99527 9.54668 4.7008C11.9644 3.40633 14.7561 2.99017 17.4463 3.52324C20.1364 4.0563 22.5585 5.5056 24.2999 7.62422C26.0413 9.74284 26.9943 12.3997 26.9964 15.1421C27.0017 16.6999 26.698 18.2433 26.1028 19.6829C25.5076 21.1225 24.6328 22.4298 23.529 23.5291Z" fill="black"/>
</svg>
