<svg width="21" height="21" viewBox="0 0 21 21" fill="none" xmlns="http://www.w3.org/2000/svg">
<path d="M15.3251 10.1421C15.3257 10.0117 15.3004 9.8825 15.2507 9.76192C15.2011 9.64133 15.128 9.53177 15.0358 9.43956C14.9436 9.34735 14.834 9.2743 14.7134 9.22465C14.5929 9.17499 14.4636 9.1497 14.3332 9.15023L11.127 9.15722L11.134 5.951C11.134 5.68793 11.0295 5.43563 10.8435 5.24961C10.6575 5.0636 10.4052 4.95909 10.1421 4.95909C9.87902 4.95909 9.62673 5.0636 9.44071 5.24961C9.25469 5.43563 9.15019 5.68793 9.15019 5.951L9.15717 9.15722L5.95095 9.15023C5.82054 9.1497 5.69132 9.17499 5.57074 9.22465C5.45015 9.2743 5.34059 9.34735 5.24838 9.43956C5.15616 9.53177 5.08312 9.64133 5.03346 9.76192C4.98381 9.8825 4.95851 10.0117 4.95905 10.1421C4.95851 10.2725 4.98381 10.4018 5.03346 10.5223C5.08312 10.6429 5.15616 10.7525 5.24838 10.8447C5.34059 10.9369 5.45015 11.01 5.57074 11.0596C5.69132 11.1093 5.82054 11.1346 5.95095 11.134L9.15717 11.1271L9.15019 14.3333C9.14965 14.4637 9.17494 14.5929 9.2246 14.7135C9.27426 14.8341 9.3473 14.9436 9.43952 15.0358C9.53173 15.1281 9.64129 15.2011 9.76187 15.2508C9.88246 15.3004 10.0117 15.3257 10.1421 15.3252C10.2725 15.3257 10.4017 15.3004 10.5223 15.2508C10.6429 15.2011 10.7524 15.1281 10.8447 15.0358C10.9369 14.9436 11.0099 14.8341 11.0596 14.7135C11.1092 14.5929 11.1345 14.4637 11.134 14.3333L11.127 11.1271L14.3332 11.134C14.4636 11.1346 14.5929 11.1093 14.7134 11.0596C14.834 11.01 14.9436 10.9369 15.0358 10.8447C15.128 10.7525 15.2011 10.6429 15.2507 10.5223C15.3004 10.4018 15.3257 10.2725 15.3251 10.1421V10.1421ZM20.0192 10.1421C20.042 8.83061 19.8034 7.52767 19.3172 6.30936C18.8311 5.09104 18.1072 3.98175 17.1878 3.04619C16.2683 2.11064 15.1718 1.36756 13.9621 0.860329C12.7524 0.353093 11.4538 0.0918539 10.1421 0.0918539C8.83037 0.0918539 7.53178 0.353093 6.32209 0.860329C5.11241 1.36756 4.01586 2.11064 3.09643 3.04619C2.17699 3.98175 1.45308 5.09104 0.966948 6.30936C0.480811 7.52767 0.242177 8.83061 0.264973 10.1421C0.242177 11.4537 0.48081 12.7566 0.966947 13.9749C1.45308 15.1932 2.17699 16.3025 3.09642 17.2381C4.01586 18.1736 5.11241 18.9167 6.32209 19.4239C7.53177 19.9312 8.83037 20.1924 10.1421 20.1924C11.4538 20.1924 12.7524 19.9312 13.9621 19.4239C15.1718 18.9167 16.2683 18.1736 17.1878 17.2381C18.1072 16.3025 18.8311 15.1932 19.3172 13.9749C19.8034 12.7566 20.042 11.4537 20.0192 10.1421V10.1421ZM10.1421 18.0494C8.31379 18.0504 6.5417 17.4175 5.12773 16.2585C3.71376 15.0994 2.74539 13.486 2.38761 11.6931C2.02983 9.90011 2.30477 8.03858 3.16558 6.42561C4.0264 4.81265 5.41984 3.54804 7.10849 2.84725C8.79715 2.14645 10.6765 2.05283 12.4265 2.58233C14.1764 3.11184 15.6887 4.2317 16.7055 5.75113C17.7224 7.27057 18.1809 9.09556 18.0031 10.9152C17.8253 12.7348 17.0221 14.4365 15.7303 15.7303C14.9984 16.4672 14.1277 17.0515 13.1685 17.4496C12.2093 17.8477 11.1806 18.0515 10.1421 18.0494V18.0494Z" fill="black"/>
</svg>
