<svg width="16" height="20" viewBox="0 0 16 20" fill="none" xmlns="http://www.w3.org/2000/svg">
<path d="M7.85714 11C7.55813 10.9964 7.26522 11.0862 7.01785 11.2573C6.77047 11.4284 6.5805 11.6725 6.47351 11.9568C6.36652 12.2411 6.34765 12.552 6.41943 12.8476C6.49121 13.1431 6.6502 13.4092 6.875 13.61V15C6.875 15.2652 6.97848 15.5196 7.16266 15.7071C7.34685 15.8946 7.59666 16 7.85714 16C8.11762 16 8.36744 15.8946 8.55162 15.7071C8.73581 15.5196 8.83929 15.2652 8.83929 15V13.61C9.06408 13.4092 9.22307 13.1431 9.29485 12.8476C9.36664 12.552 9.34776 12.2411 9.24077 11.9568C9.13378 11.6725 8.94382 11.4284 8.69644 11.2573C8.44907 11.0862 8.15616 10.9964 7.85714 11V11ZM12.7679 7V5C12.7679 3.67392 12.2505 2.40215 11.3295 1.46447C10.4086 0.526784 9.15955 0 7.85714 0C6.55474 0 5.30568 0.526784 4.38474 1.46447C3.46381 2.40215 2.94643 3.67392 2.94643 5V7C2.16499 7 1.41555 7.31607 0.862989 7.87868C0.310426 8.44129 0 9.20435 0 10V17C0 17.7956 0.310426 18.5587 0.862989 19.1213C1.41555 19.6839 2.16499 20 2.94643 20H12.7679C13.5493 20 14.2987 19.6839 14.8513 19.1213C15.4039 18.5587 15.7143 17.7956 15.7143 17V10C15.7143 9.20435 15.4039 8.44129 14.8513 7.87868C14.2987 7.31607 13.5493 7 12.7679 7ZM4.91071 5C4.91071 4.20435 5.22114 3.44129 5.7737 2.87868C6.32627 2.31607 7.0757 2 7.85714 2C8.63858 2 9.38802 2.31607 9.94058 2.87868C10.4931 3.44129 10.8036 4.20435 10.8036 5V7H4.91071V5ZM13.75 17C13.75 17.2652 13.6465 17.5196 13.4623 17.7071C13.2782 17.8946 13.0283 18 12.7679 18H2.94643C2.68595 18 2.43614 17.8946 2.25195 17.7071C2.06776 17.5196 1.96429 17.2652 1.96429 17V10C1.96429 9.73478 2.06776 9.48043 2.25195 9.29289C2.43614 9.10536 2.68595 9 2.94643 9H12.7679C13.0283 9 13.2782 9.10536 13.4623 9.29289C13.6465 9.48043 13.75 9.73478 13.75 10V17Z" fill="black"/>
</svg>
